<svg width="1440" height="1118" viewBox="0 0 1440 1118" fill="none" xmlns="http://www.w3.org/2000/svg">
<g clip-path="url(#clip0)">
<rect width="1440" height="1118" fill="white"/>
<rect x="1440" y="1118" width="1440" height="1118" transform="rotate(-180 1440 1118)" fill="white"/>
<rect x="1440" y="1118" width="1440" height="1118" transform="rotate(-180 1440 1118)" fill="url(#paint0_linear)"/>
<path d="M692.2 524.909C664.838 497.547 664.838 453.083 687.159 425.541L939.179 173.522C971.761 146.159 1016.22 146.159 1043.59 173.522C1070.95 200.884 1070.95 245.347 1043.59 272.889L791.567 524.909C764.025 552.271 719.562 552.271 692.2 524.909Z" fill="url(#paint1_linear)" fill-opacity="0.3"/>
<path d="M64.1997 653.909C36.8375 626.547 36.8375 582.083 59.1593 554.541L311.179 302.522C343.761 275.159 388.225 275.159 415.587 302.522C442.949 329.884 442.949 374.347 415.587 401.889L163.567 653.909C136.025 681.271 91.5618 681.271 64.1997 653.909Z" fill="url(#paint2_linear)" fill-opacity="0.3"/>
<path d="M1030.45 775.937C1054.39 799.852 1054.39 838.715 1034.86 862.788L814.323 1083.06C785.811 1106.98 746.902 1106.98 722.958 1083.06C699.014 1059.15 699.014 1020.28 722.958 996.212L943.494 775.937C967.596 752.021 1006.5 752.021 1030.45 775.937Z" fill="url(#paint3_linear)" fill-opacity="0.3"/>
<path d="M1120.78 430.659C1104.28 414.204 1104.28 387.464 1117.74 370.901L1269.68 219.341C1289.33 202.886 1316.13 202.886 1332.63 219.341C1349.12 235.796 1349.12 262.536 1332.63 279.099L1180.69 430.659C1164.08 447.114 1137.28 447.114 1120.78 430.659Z" fill="white" fill-opacity="0.3"/>
<path d="M806.781 782.659C790.285 766.204 790.285 739.464 803.742 722.901L955.682 571.341C975.325 554.886 1002.13 554.886 1018.63 571.341C1035.12 587.796 1035.12 614.536 1018.63 631.099L866.688 782.659C850.084 799.114 823.277 799.114 806.781 782.659Z" fill="url(#paint4_linear)" fill-opacity="0.3"/>
<path d="M41.781 932.659C25.2847 916.204 25.2847 889.464 38.7422 872.901L190.682 721.341C210.325 704.886 237.132 704.886 253.628 721.341C270.124 737.796 270.124 764.536 253.628 781.099L101.688 932.659C85.0837 949.114 58.2773 949.114 41.781 932.659Z" fill="url(#paint5_linear)" fill-opacity="0.3"/>
<path d="M425.781 596.659C409.285 580.204 409.285 553.464 422.742 536.901L574.682 385.341C594.325 368.886 621.132 368.886 637.628 385.341C654.124 401.796 654.124 428.536 637.628 445.099L485.688 596.659C469.084 613.114 442.277 613.114 425.781 596.659Z" fill="url(#paint6_linear)" fill-opacity="0.3"/>
<path d="M12.219 462.341C28.7153 478.796 28.7153 505.536 15.2578 522.099L-136.682 673.659C-156.325 690.114 -183.132 690.114 -199.628 673.659C-216.124 657.204 -216.124 630.464 -199.628 613.901L-47.6885 462.341C-31.0837 445.886 -4.27724 445.886 12.219 462.341Z" fill="url(#paint7_linear)" fill-opacity="0.3"/>
<path d="M589.473 790.725C525.201 726.453 420.646 726.102 356.374 790.374C292.102 854.646 292.453 959.201 356.725 1023.47C420.996 1087.74 525.552 1088.1 589.823 1023.82C654.095 959.552 653.745 854.996 589.473 790.725Z" fill="url(#paint8_linear)" fill-opacity="0.3"/>
<path d="M-54.5905 369.125L89.4996 225.035C97.31 217.225 97.31 204.562 89.4996 196.751L-55.1097 52.142C-62.9201 44.3316 -75.5833 44.3316 -83.3937 52.142L-227.484 196.232C-235.294 204.043 -235.294 216.706 -227.484 224.516L-82.8745 369.125C-75.0641 376.936 -62.4009 376.936 -54.5905 369.125Z" fill="url(#paint9_linear)" fill-opacity="0.3"/>
<path d="M922 133C926.971 133 931 128.971 931 124C931 119.029 926.971 115 922 115C917.029 115 913 119.029 913 124C913 128.971 917.029 133 922 133Z" fill="white" fill-opacity="0.3"/>
<path d="M1157 151C1161.97 151 1166 146.97 1166 142C1166 137.029 1161.97 133 1157 133C1152.03 133 1148 137.029 1148 142C1148 146.97 1152.03 151 1157 151Z" fill="white" fill-opacity="0.3"/>
<path d="M747 867C749.761 867 752 864.761 752 862C752 859.239 749.761 857 747 857C744.239 857 742 859.239 742 862C742 864.761 744.239 867 747 867Z" fill="white" fill-opacity="0.3"/>
<path d="M629 619C631.761 619 634 616.761 634 614C634 611.239 631.761 609 629 609C626.239 609 624 611.239 624 614C624 616.761 626.239 619 629 619Z" fill="white" fill-opacity="0.3"/>
<path d="M81 410C83.7614 410 86 407.761 86 405C86 402.239 83.7614 400 81 400C78.2386 400 76 402.239 76 405C76 407.761 78.2386 410 81 410Z" fill="white" fill-opacity="0.3"/>
<path d="M1128 698C1132.97 698 1137 693.971 1137 689C1137 684.029 1132.97 680 1128 680C1123.03 680 1119 684.029 1119 689C1119 693.971 1123.03 698 1128 698Z" fill="url(#paint10_linear)" fill-opacity="0.3"/>
<path d="M112 773C116.971 773 121 768.971 121 764C121 759.029 116.971 755 112 755C107.029 755 103 759.029 103 764C103 768.971 107.029 773 112 773Z" fill="white" fill-opacity="0.3"/>
<path d="M404 189C408.971 189 413 184.971 413 180C413 175.029 408.971 171 404 171C399.029 171 395 175.029 395 180C395 184.971 399.029 189 404 189Z" fill="white" fill-opacity="0.3"/>
<path d="M490 636C494.971 636 499 631.971 499 627C499 622.029 494.971 618 490 618C485.029 618 481 622.029 481 627C481 631.971 485.029 636 490 636Z" fill="white" fill-opacity="0.3"/>
<path d="M151 151C155.971 151 160 146.971 160 142C160 137.029 155.971 133 151 133C146.029 133 142 137.029 142 142C142 146.971 146.029 151 151 151Z" fill="white" fill-opacity="0.3"/>
<path d="M965.695 -62.6487L636.343 -392L306 -61.6567L635.351 267.695L965.695 -62.6487Z" fill="url(#paint11_linear)" fill-opacity="0.3"/>
<path d="M1165.13 898.132C1081.36 981.9 1080.91 1118.17 1164.68 1201.94C1248.44 1285.71 1384.71 1285.25 1468.48 1201.48C1552.25 1117.71 1552.71 981.443 1468.94 897.675C1385.17 813.907 1248.9 814.364 1165.13 898.132Z" stroke="white" stroke-opacity="0.3" stroke-width="69.834" stroke-miterlimit="10" stroke-linecap="round" stroke-linejoin="round"/>
<path d="M1195.56 504C1199.12 504 1202 501.117 1202 497.56C1202 494.004 1199.12 491.121 1195.56 491.121C1192 491.121 1189.12 494.004 1189.12 497.56C1189.12 501.117 1192 504 1195.56 504Z" fill="white" fill-opacity="0.3"/>
<path d="M1148.34 504C1151.89 504 1154.78 501.117 1154.78 497.56C1154.78 494.004 1151.89 491.121 1148.34 491.121C1144.78 491.121 1141.9 494.004 1141.9 497.56C1141.9 501.117 1144.78 504 1148.34 504Z" fill="white" fill-opacity="0.3"/>
<path d="M1101.11 504C1104.67 504 1107.55 501.117 1107.55 497.56C1107.55 494.004 1104.67 491.121 1101.11 491.121C1097.56 491.121 1094.67 494.004 1094.67 497.56C1094.67 501.117 1097.56 504 1101.11 504Z" fill="white" fill-opacity="0.3"/>
<path d="M1053.89 504C1057.44 504 1060.33 501.117 1060.33 497.56C1060.33 494.004 1057.44 491.121 1053.89 491.121C1050.33 491.121 1047.45 494.004 1047.45 497.56C1047.45 501.117 1050.33 504 1053.89 504Z" fill="white" fill-opacity="0.3"/>
<path d="M1006.66 504C1010.22 504 1013.1 501.117 1013.1 497.56C1013.1 494.004 1010.22 491.121 1006.66 491.121C1003.11 491.121 1000.22 494.004 1000.22 497.56C1000.22 501.117 1003.11 504 1006.66 504Z" fill="white" fill-opacity="0.3"/>
<path d="M959.44 504C962.996 504 965.879 501.117 965.879 497.56C965.879 494.004 962.996 491.121 959.44 491.121C955.883 491.121 953 494.004 953 497.56C953 501.117 955.883 504 959.44 504Z" fill="white" fill-opacity="0.3"/>
<path d="M1195.56 456.776C1199.12 456.776 1202 453.893 1202 450.336C1202 446.78 1199.12 443.897 1195.56 443.897C1192 443.897 1189.12 446.78 1189.12 450.336C1189.12 453.893 1192 456.776 1195.56 456.776Z" fill="white" fill-opacity="0.3"/>
<path d="M1148.34 456.776C1151.89 456.776 1154.78 453.893 1154.78 450.336C1154.78 446.78 1151.89 443.897 1148.34 443.897C1144.78 443.897 1141.9 446.78 1141.9 450.336C1141.9 453.893 1144.78 456.776 1148.34 456.776Z" fill="white" fill-opacity="0.3"/>
<path d="M1101.11 456.776C1104.67 456.776 1107.55 453.893 1107.55 450.336C1107.55 446.78 1104.67 443.897 1101.11 443.897C1097.56 443.897 1094.67 446.78 1094.67 450.336C1094.67 453.893 1097.56 456.776 1101.11 456.776Z" fill="white" fill-opacity="0.3"/>
<path d="M1053.89 456.776C1057.44 456.776 1060.33 453.893 1060.33 450.336C1060.33 446.78 1057.44 443.897 1053.89 443.897C1050.33 443.897 1047.45 446.78 1047.45 450.336C1047.45 453.893 1050.33 456.776 1053.89 456.776Z" fill="white" fill-opacity="0.3"/>
<path d="M1006.66 456.776C1010.22 456.776 1013.1 453.893 1013.1 450.336C1013.1 446.78 1010.22 443.897 1006.66 443.897C1003.11 443.897 1000.22 446.78 1000.22 450.336C1000.22 453.893 1003.11 456.776 1006.66 456.776Z" fill="white" fill-opacity="0.3"/>
<path d="M959.44 456.776C962.996 456.776 965.879 453.893 965.879 450.336C965.879 446.78 962.996 443.897 959.44 443.897C955.883 443.897 953 446.78 953 450.336C953 453.893 955.883 456.776 959.44 456.776Z" fill="white" fill-opacity="0.3"/>
<path d="M1195.56 409.552C1199.12 409.552 1202 406.669 1202 403.112C1202 399.556 1199.12 396.672 1195.56 396.672C1192 396.672 1189.12 399.556 1189.12 403.112C1189.12 406.669 1192 409.552 1195.56 409.552Z" fill="white" fill-opacity="0.3"/>
<path d="M1148.34 409.552C1151.89 409.552 1154.78 406.669 1154.78 403.112C1154.78 399.556 1151.89 396.672 1148.34 396.672C1144.78 396.672 1141.9 399.556 1141.9 403.112C1141.9 406.669 1144.78 409.552 1148.34 409.552Z" fill="white" fill-opacity="0.3"/>
<path d="M1101.11 409.552C1104.67 409.552 1107.55 406.669 1107.55 403.112C1107.55 399.556 1104.67 396.672 1101.11 396.672C1097.56 396.672 1094.67 399.556 1094.67 403.112C1094.67 406.669 1097.56 409.552 1101.11 409.552Z" fill="white" fill-opacity="0.3"/>
<path d="M1053.89 409.552C1057.44 409.552 1060.33 406.669 1060.33 403.112C1060.33 399.556 1057.44 396.672 1053.89 396.672C1050.33 396.672 1047.45 399.556 1047.45 403.112C1047.45 406.669 1050.33 409.552 1053.89 409.552Z" fill="white" fill-opacity="0.3"/>
<path d="M1006.66 409.552C1010.22 409.552 1013.1 406.669 1013.1 403.112C1013.1 399.556 1010.22 396.672 1006.66 396.672C1003.11 396.672 1000.22 399.556 1000.22 403.112C1000.22 406.669 1003.11 409.552 1006.66 409.552Z" fill="white" fill-opacity="0.3"/>
<path d="M959.44 409.552C962.996 409.552 965.879 406.669 965.879 403.112C965.879 399.556 962.996 396.673 959.44 396.673C955.883 396.673 953 399.556 953 403.112C953 406.669 955.883 409.552 959.44 409.552Z" fill="white" fill-opacity="0.3"/>
<path d="M1195.56 362.328C1199.12 362.328 1202 359.444 1202 355.888C1202 352.331 1199.12 349.448 1195.56 349.448C1192 349.448 1189.12 352.331 1189.12 355.888C1189.12 359.444 1192 362.328 1195.56 362.328Z" fill="white" fill-opacity="0.3"/>
<path d="M1148.34 362.328C1151.89 362.328 1154.78 359.444 1154.78 355.888C1154.78 352.331 1151.89 349.448 1148.34 349.448C1144.78 349.448 1141.9 352.331 1141.9 355.888C1141.9 359.444 1144.78 362.328 1148.34 362.328Z" fill="white" fill-opacity="0.3"/>
<path d="M1101.11 362.328C1104.67 362.328 1107.55 359.444 1107.55 355.888C1107.55 352.331 1104.67 349.448 1101.11 349.448C1097.56 349.448 1094.67 352.331 1094.67 355.888C1094.67 359.444 1097.56 362.328 1101.11 362.328Z" fill="white" fill-opacity="0.3"/>
<path d="M1053.89 362.328C1057.44 362.328 1060.33 359.444 1060.33 355.888C1060.33 352.331 1057.44 349.448 1053.89 349.448C1050.33 349.448 1047.45 352.331 1047.45 355.888C1047.45 359.444 1050.33 362.328 1053.89 362.328Z" fill="white" fill-opacity="0.3"/>
<path d="M1006.66 362.328C1010.22 362.328 1013.1 359.444 1013.1 355.888C1013.1 352.331 1010.22 349.448 1006.66 349.448C1003.11 349.448 1000.22 352.331 1000.22 355.888C1000.22 359.444 1003.11 362.328 1006.66 362.328Z" fill="white" fill-opacity="0.3"/>
<path d="M959.44 362.328C962.996 362.328 965.879 359.445 965.879 355.888C965.879 352.332 962.996 349.448 959.44 349.448C955.883 349.448 953 352.332 953 355.888C953 359.445 955.883 362.328 959.44 362.328Z" fill="white" fill-opacity="0.3"/>
<path d="M1195.56 315.103C1199.12 315.103 1202 312.22 1202 308.664C1202 305.107 1199.12 302.224 1195.56 302.224C1192 302.224 1189.12 305.107 1189.12 308.664C1189.12 312.22 1192 315.103 1195.56 315.103Z" fill="white" fill-opacity="0.3"/>
<path d="M1148.34 315.103C1151.89 315.103 1154.78 312.22 1154.78 308.664C1154.78 305.107 1151.89 302.224 1148.34 302.224C1144.78 302.224 1141.9 305.107 1141.9 308.664C1141.9 312.22 1144.78 315.103 1148.34 315.103Z" fill="white" fill-opacity="0.3"/>
<path d="M1101.11 315.103C1104.67 315.103 1107.55 312.22 1107.55 308.664C1107.55 305.107 1104.67 302.224 1101.11 302.224C1097.56 302.224 1094.67 305.107 1094.67 308.664C1094.67 312.22 1097.56 315.103 1101.11 315.103Z" fill="white" fill-opacity="0.3"/>
<path d="M1053.89 315.103C1057.44 315.103 1060.33 312.22 1060.33 308.664C1060.33 305.107 1057.44 302.224 1053.89 302.224C1050.33 302.224 1047.45 305.107 1047.45 308.664C1047.45 312.22 1050.33 315.103 1053.89 315.103Z" fill="white" fill-opacity="0.3"/>
<path d="M1006.66 315.103C1010.22 315.103 1013.1 312.22 1013.1 308.664C1013.1 305.107 1010.22 302.224 1006.66 302.224C1003.11 302.224 1000.22 305.107 1000.22 308.664C1000.22 312.22 1003.11 315.103 1006.66 315.103Z" fill="white" fill-opacity="0.3"/>
<path d="M959.44 315.104C962.996 315.104 965.879 312.221 965.879 308.664C965.879 305.107 962.996 302.224 959.44 302.224C955.883 302.224 953 305.107 953 308.664C953 312.221 955.883 315.104 959.44 315.104Z" fill="white" fill-opacity="0.3"/>
<path d="M1195.56 267.879C1199.12 267.879 1202 264.996 1202 261.44C1202 257.883 1199.12 255 1195.56 255C1192 255 1189.12 257.883 1189.12 261.44C1189.12 264.996 1192 267.879 1195.56 267.879Z" fill="white" fill-opacity="0.3"/>
<path d="M1148.34 267.879C1151.89 267.879 1154.78 264.996 1154.78 261.44C1154.78 257.883 1151.89 255 1148.34 255C1144.78 255 1141.9 257.883 1141.9 261.44C1141.9 264.996 1144.78 267.879 1148.34 267.879Z" fill="white" fill-opacity="0.3"/>
<path d="M1101.11 267.879C1104.67 267.879 1107.55 264.996 1107.55 261.44C1107.55 257.883 1104.67 255 1101.11 255C1097.56 255 1094.67 257.883 1094.67 261.44C1094.67 264.996 1097.56 267.879 1101.11 267.879Z" fill="white" fill-opacity="0.3"/>
<path d="M1053.89 267.879C1057.44 267.879 1060.33 264.996 1060.33 261.44C1060.33 257.883 1057.44 255 1053.89 255C1050.33 255 1047.45 257.883 1047.45 261.44C1047.45 264.996 1050.33 267.879 1053.89 267.879Z" fill="white" fill-opacity="0.3"/>
<path d="M1006.66 267.879C1010.22 267.879 1013.1 264.996 1013.1 261.44C1013.1 257.883 1010.22 255 1006.66 255C1003.11 255 1000.22 257.883 1000.22 261.44C1000.22 264.996 1003.11 267.879 1006.66 267.879Z" fill="white" fill-opacity="0.3"/>
<path d="M959.44 267.879C962.996 267.879 965.879 264.996 965.879 261.44C965.879 257.883 962.996 255 959.44 255C955.883 255 953 257.883 953 261.44C953 264.996 955.883 267.879 959.44 267.879Z" fill="white" fill-opacity="0.3"/>
<path d="M834.793 720C836.564 720 838 718.564 838 716.793C838 715.022 836.564 713.586 834.793 713.586C833.022 713.586 831.586 715.022 831.586 716.793C831.586 718.564 833.022 720 834.793 720Z" fill="url(#paint12_linear)" fill-opacity="0.3"/>
<path d="M811.276 720C813.047 720 814.483 718.564 814.483 716.793C814.483 715.022 813.047 713.586 811.276 713.586C809.505 713.586 808.069 715.022 808.069 716.793C808.069 718.564 809.505 720 811.276 720Z" fill="url(#paint13_linear)" fill-opacity="0.3"/>
<path d="M787.759 720C789.53 720 790.966 718.564 790.966 716.793C790.966 715.022 789.53 713.586 787.759 713.586C785.988 713.586 784.552 715.022 784.552 716.793C784.552 718.564 785.988 720 787.759 720Z" fill="url(#paint14_linear)" fill-opacity="0.3"/>
<path d="M764.241 720C766.012 720 767.448 718.564 767.448 716.793C767.448 715.022 766.012 713.586 764.241 713.586C762.47 713.586 761.034 715.022 761.034 716.793C761.034 718.564 762.47 720 764.241 720Z" fill="url(#paint15_linear)" fill-opacity="0.3"/>
<path d="M740.724 720C742.495 720 743.931 718.564 743.931 716.793C743.931 715.022 742.495 713.586 740.724 713.586C738.953 713.586 737.517 715.022 737.517 716.793C737.517 718.564 738.953 720 740.724 720Z" fill="url(#paint16_linear)" fill-opacity="0.3"/>
<path d="M717.207 720C718.978 720 720.414 718.564 720.414 716.793C720.414 715.022 718.978 713.586 717.207 713.586C715.436 713.586 714 715.022 714 716.793C714 718.564 715.436 720 717.207 720Z" fill="url(#paint17_linear)" fill-opacity="0.3"/>
<path d="M834.793 696.483C836.564 696.483 838 695.047 838 693.276C838 691.505 836.564 690.069 834.793 690.069C833.022 690.069 831.586 691.505 831.586 693.276C831.586 695.047 833.022 696.483 834.793 696.483Z" fill="url(#paint18_linear)" fill-opacity="0.3"/>
<path d="M811.276 696.483C813.047 696.483 814.483 695.047 814.483 693.276C814.483 691.505 813.047 690.069 811.276 690.069C809.505 690.069 808.069 691.505 808.069 693.276C808.069 695.047 809.505 696.483 811.276 696.483Z" fill="url(#paint19_linear)" fill-opacity="0.3"/>
<path d="M787.759 696.483C789.53 696.483 790.966 695.047 790.966 693.276C790.966 691.505 789.53 690.069 787.759 690.069C785.988 690.069 784.552 691.505 784.552 693.276C784.552 695.047 785.988 696.483 787.759 696.483Z" fill="url(#paint20_linear)" fill-opacity="0.3"/>
<path d="M764.241 696.483C766.012 696.483 767.448 695.047 767.448 693.276C767.448 691.505 766.012 690.069 764.241 690.069C762.47 690.069 761.034 691.505 761.034 693.276C761.034 695.047 762.47 696.483 764.241 696.483Z" fill="url(#paint21_linear)" fill-opacity="0.3"/>
<path d="M740.724 696.483C742.495 696.483 743.931 695.047 743.931 693.276C743.931 691.505 742.495 690.069 740.724 690.069C738.953 690.069 737.517 691.505 737.517 693.276C737.517 695.047 738.953 696.483 740.724 696.483Z" fill="url(#paint22_linear)" fill-opacity="0.3"/>
<path d="M717.207 696.483C718.978 696.483 720.414 695.047 720.414 693.276C720.414 691.505 718.978 690.069 717.207 690.069C715.436 690.069 714 691.505 714 693.276C714 695.047 715.436 696.483 717.207 696.483Z" fill="url(#paint23_linear)" fill-opacity="0.3"/>
<path d="M834.793 672.965C836.564 672.965 838 671.53 838 669.759C838 667.987 836.564 666.552 834.793 666.552C833.022 666.552 831.586 667.987 831.586 669.759C831.586 671.53 833.022 672.965 834.793 672.965Z" fill="url(#paint24_linear)" fill-opacity="0.3"/>
<path d="M811.276 672.965C813.047 672.965 814.483 671.53 814.483 669.759C814.483 667.987 813.047 666.552 811.276 666.552C809.505 666.552 808.069 667.987 808.069 669.759C808.069 671.53 809.505 672.965 811.276 672.965Z" fill="url(#paint25_linear)" fill-opacity="0.3"/>
<path d="M787.759 672.965C789.53 672.965 790.966 671.53 790.966 669.759C790.966 667.987 789.53 666.552 787.759 666.552C785.988 666.552 784.552 667.987 784.552 669.759C784.552 671.53 785.988 672.965 787.759 672.965Z" fill="url(#paint26_linear)" fill-opacity="0.3"/>
<path d="M764.241 672.965C766.012 672.965 767.448 671.53 767.448 669.759C767.448 667.987 766.012 666.552 764.241 666.552C762.47 666.552 761.034 667.987 761.034 669.759C761.034 671.53 762.47 672.965 764.241 672.965Z" fill="url(#paint27_linear)" fill-opacity="0.3"/>
<path d="M740.724 672.965C742.495 672.965 743.931 671.53 743.931 669.759C743.931 667.987 742.495 666.552 740.724 666.552C738.953 666.552 737.517 667.987 737.517 669.759C737.517 671.53 738.953 672.965 740.724 672.965Z" fill="url(#paint28_linear)" fill-opacity="0.3"/>
<path d="M717.207 672.966C718.978 672.966 720.414 671.53 720.414 669.759C720.414 667.988 718.978 666.552 717.207 666.552C715.436 666.552 714 667.988 714 669.759C714 671.53 715.436 672.966 717.207 672.966Z" fill="url(#paint29_linear)" fill-opacity="0.3"/>
<path d="M834.793 649.448C836.564 649.448 838 648.013 838 646.241C838 644.47 836.564 643.035 834.793 643.035C833.022 643.035 831.586 644.47 831.586 646.241C831.586 648.013 833.022 649.448 834.793 649.448Z" fill="url(#paint30_linear)" fill-opacity="0.3"/>
<path d="M811.276 649.448C813.047 649.448 814.483 648.013 814.483 646.241C814.483 644.47 813.047 643.035 811.276 643.035C809.505 643.035 808.069 644.47 808.069 646.241C808.069 648.013 809.505 649.448 811.276 649.448Z" fill="url(#paint31_linear)" fill-opacity="0.3"/>
<path d="M787.759 649.448C789.53 649.448 790.966 648.013 790.966 646.241C790.966 644.47 789.53 643.035 787.759 643.035C785.988 643.035 784.552 644.47 784.552 646.241C784.552 648.013 785.988 649.448 787.759 649.448Z" fill="url(#paint32_linear)" fill-opacity="0.3"/>
<path d="M764.241 649.448C766.012 649.448 767.448 648.013 767.448 646.241C767.448 644.47 766.012 643.035 764.241 643.035C762.47 643.035 761.034 644.47 761.034 646.241C761.034 648.013 762.47 649.448 764.241 649.448Z" fill="url(#paint33_linear)" fill-opacity="0.3"/>
<path d="M740.724 649.448C742.495 649.448 743.931 648.013 743.931 646.241C743.931 644.47 742.495 643.035 740.724 643.035C738.953 643.035 737.517 644.47 737.517 646.241C737.517 648.013 738.953 649.448 740.724 649.448Z" fill="url(#paint34_linear)" fill-opacity="0.3"/>
<path d="M717.207 649.448C718.978 649.448 720.414 648.013 720.414 646.242C720.414 644.47 718.978 643.035 717.207 643.035C715.436 643.035 714 644.47 714 646.242C714 648.013 715.436 649.448 717.207 649.448Z" fill="url(#paint35_linear)" fill-opacity="0.3"/>
<path d="M834.793 625.931C836.564 625.931 838 624.495 838 622.724C838 620.953 836.564 619.517 834.793 619.517C833.022 619.517 831.586 620.953 831.586 622.724C831.586 624.495 833.022 625.931 834.793 625.931Z" fill="url(#paint36_linear)" fill-opacity="0.3"/>
<path d="M811.276 625.931C813.047 625.931 814.483 624.495 814.483 622.724C814.483 620.953 813.047 619.517 811.276 619.517C809.505 619.517 808.069 620.953 808.069 622.724C808.069 624.495 809.505 625.931 811.276 625.931Z" fill="url(#paint37_linear)" fill-opacity="0.3"/>
<path d="M787.759 625.931C789.53 625.931 790.966 624.495 790.966 622.724C790.966 620.953 789.53 619.517 787.759 619.517C785.988 619.517 784.552 620.953 784.552 622.724C784.552 624.495 785.988 625.931 787.759 625.931Z" fill="url(#paint38_linear)" fill-opacity="0.3"/>
<path d="M764.241 625.931C766.012 625.931 767.448 624.495 767.448 622.724C767.448 620.953 766.012 619.517 764.241 619.517C762.47 619.517 761.034 620.953 761.034 622.724C761.034 624.495 762.47 625.931 764.241 625.931Z" fill="url(#paint39_linear)" fill-opacity="0.3"/>
<path d="M740.724 625.931C742.495 625.931 743.931 624.495 743.931 622.724C743.931 620.953 742.495 619.517 740.724 619.517C738.953 619.517 737.517 620.953 737.517 622.724C737.517 624.495 738.953 625.931 740.724 625.931Z" fill="url(#paint40_linear)" fill-opacity="0.3"/>
<path d="M717.207 625.931C718.978 625.931 720.414 624.495 720.414 622.724C720.414 620.953 718.978 619.517 717.207 619.517C715.436 619.517 714 620.953 714 622.724C714 624.495 715.436 625.931 717.207 625.931Z" fill="url(#paint41_linear)" fill-opacity="0.3"/>
<path d="M834.793 602.414C836.564 602.414 838 600.978 838 599.207C838 597.436 836.564 596 834.793 596C833.022 596 831.586 597.436 831.586 599.207C831.586 600.978 833.022 602.414 834.793 602.414Z" fill="url(#paint42_linear)" fill-opacity="0.3"/>
<path d="M811.276 602.414C813.047 602.414 814.483 600.978 814.483 599.207C814.483 597.436 813.047 596 811.276 596C809.505 596 808.069 597.436 808.069 599.207C808.069 600.978 809.505 602.414 811.276 602.414Z" fill="url(#paint43_linear)" fill-opacity="0.3"/>
<path d="M787.759 602.414C789.53 602.414 790.966 600.978 790.966 599.207C790.966 597.436 789.53 596 787.759 596C785.988 596 784.552 597.436 784.552 599.207C784.552 600.978 785.988 602.414 787.759 602.414Z" fill="url(#paint44_linear)" fill-opacity="0.3"/>
<path d="M764.241 602.414C766.012 602.414 767.448 600.978 767.448 599.207C767.448 597.436 766.012 596 764.241 596C762.47 596 761.034 597.436 761.034 599.207C761.034 600.978 762.47 602.414 764.241 602.414Z" fill="url(#paint45_linear)" fill-opacity="0.3"/>
<path d="M740.724 602.414C742.495 602.414 743.931 600.978 743.931 599.207C743.931 597.436 742.495 596 740.724 596C738.953 596 737.517 597.436 737.517 599.207C737.517 600.978 738.953 602.414 740.724 602.414Z" fill="url(#paint46_linear)" fill-opacity="0.3"/>
<path d="M717.207 602.414C718.978 602.414 720.414 600.978 720.414 599.207C720.414 597.436 718.978 596 717.207 596C715.436 596 714 597.436 714 599.207C714 600.978 715.436 602.414 717.207 602.414Z" fill="url(#paint47_linear)" fill-opacity="0.3"/>
<path d="M287.276 397C289.333 397 291 395.333 291 393.276C291 391.219 289.333 389.552 287.276 389.552C285.219 389.552 283.552 391.219 283.552 393.276C283.552 395.333 285.219 397 287.276 397Z" fill="white" fill-opacity="0.3"/>
<path d="M259.965 397C262.022 397 263.689 395.333 263.689 393.276C263.689 391.219 262.022 389.552 259.965 389.552C257.909 389.552 256.241 391.219 256.241 393.276C256.241 395.333 257.909 397 259.965 397Z" fill="white" fill-opacity="0.3"/>
<path d="M232.655 397C234.712 397 236.379 395.333 236.379 393.276C236.379 391.219 234.712 389.552 232.655 389.552C230.599 389.552 228.931 391.219 228.931 393.276C228.931 395.333 230.599 397 232.655 397Z" fill="white" fill-opacity="0.3"/>
<path d="M205.345 397C207.402 397 209.069 395.333 209.069 393.276C209.069 391.219 207.402 389.552 205.345 389.552C203.288 389.552 201.621 391.219 201.621 393.276C201.621 395.333 203.288 397 205.345 397Z" fill="white" fill-opacity="0.3"/>
<path d="M178.034 397C180.091 397 181.758 395.333 181.758 393.276C181.758 391.219 180.091 389.552 178.034 389.552C175.977 389.552 174.31 391.219 174.31 393.276C174.31 395.333 175.977 397 178.034 397Z" fill="white" fill-opacity="0.3"/>
<path d="M150.724 397C152.781 397 154.448 395.332 154.448 393.276C154.448 391.219 152.781 389.552 150.724 389.552C148.667 389.552 147 391.219 147 393.276C147 395.332 148.667 397 150.724 397Z" fill="white" fill-opacity="0.3"/>
<path d="M287.276 369.689C289.333 369.689 291 368.022 291 365.965C291 363.909 289.333 362.241 287.276 362.241C285.219 362.241 283.552 363.909 283.552 365.965C283.552 368.022 285.219 369.689 287.276 369.689Z" fill="white" fill-opacity="0.3"/>
<path d="M259.965 369.689C262.022 369.689 263.689 368.022 263.689 365.965C263.689 363.909 262.022 362.241 259.965 362.241C257.909 362.241 256.241 363.909 256.241 365.965C256.241 368.022 257.909 369.689 259.965 369.689Z" fill="white" fill-opacity="0.3"/>
<path d="M232.655 369.689C234.712 369.689 236.379 368.022 236.379 365.965C236.379 363.909 234.712 362.241 232.655 362.241C230.599 362.241 228.931 363.909 228.931 365.965C228.931 368.022 230.599 369.689 232.655 369.689Z" fill="white" fill-opacity="0.3"/>
<path d="M205.345 369.689C207.402 369.689 209.069 368.022 209.069 365.965C209.069 363.909 207.402 362.241 205.345 362.241C203.288 362.241 201.621 363.909 201.621 365.965C201.621 368.022 203.288 369.689 205.345 369.689Z" fill="white" fill-opacity="0.3"/>
<path d="M178.034 369.689C180.091 369.689 181.758 368.022 181.758 365.965C181.758 363.909 180.091 362.241 178.034 362.241C175.977 362.241 174.31 363.909 174.31 365.965C174.31 368.022 175.977 369.689 178.034 369.689Z" fill="white" fill-opacity="0.3"/>
<path d="M150.724 369.69C152.781 369.69 154.448 368.022 154.448 365.965C154.448 363.909 152.781 362.241 150.724 362.241C148.667 362.241 147 363.909 147 365.965C147 368.022 148.667 369.69 150.724 369.69Z" fill="white" fill-opacity="0.3"/>
<path d="M287.276 342.379C289.333 342.379 291 340.712 291 338.655C291 336.598 289.333 334.931 287.276 334.931C285.219 334.931 283.552 336.598 283.552 338.655C283.552 340.712 285.219 342.379 287.276 342.379Z" fill="white" fill-opacity="0.3"/>
<path d="M259.965 342.379C262.022 342.379 263.689 340.712 263.689 338.655C263.689 336.598 262.022 334.931 259.965 334.931C257.909 334.931 256.241 336.598 256.241 338.655C256.241 340.712 257.909 342.379 259.965 342.379Z" fill="white" fill-opacity="0.3"/>
<path d="M232.655 342.379C234.712 342.379 236.379 340.712 236.379 338.655C236.379 336.598 234.712 334.931 232.655 334.931C230.599 334.931 228.931 336.598 228.931 338.655C228.931 340.712 230.599 342.379 232.655 342.379Z" fill="white" fill-opacity="0.3"/>
<path d="M205.345 342.379C207.402 342.379 209.069 340.712 209.069 338.655C209.069 336.598 207.402 334.931 205.345 334.931C203.288 334.931 201.621 336.598 201.621 338.655C201.621 340.712 203.288 342.379 205.345 342.379Z" fill="white" fill-opacity="0.3"/>
<path d="M178.034 342.379C180.091 342.379 181.758 340.712 181.758 338.655C181.758 336.598 180.091 334.931 178.034 334.931C175.977 334.931 174.31 336.598 174.31 338.655C174.31 340.712 175.977 342.379 178.034 342.379Z" fill="white" fill-opacity="0.3"/>
<path d="M150.724 342.379C152.781 342.379 154.448 340.712 154.448 338.655C154.448 336.598 152.781 334.931 150.724 334.931C148.667 334.931 147 336.598 147 338.655C147 340.712 148.667 342.379 150.724 342.379Z" fill="white" fill-opacity="0.3"/>
<path d="M287.276 315.069C289.333 315.069 291 313.401 291 311.345C291 309.288 289.333 307.621 287.276 307.621C285.219 307.621 283.552 309.288 283.552 311.345C283.552 313.401 285.219 315.069 287.276 315.069Z" fill="white" fill-opacity="0.3"/>
<path d="M259.965 315.069C262.022 315.069 263.689 313.401 263.689 311.345C263.689 309.288 262.022 307.621 259.965 307.621C257.909 307.621 256.241 309.288 256.241 311.345C256.241 313.401 257.909 315.069 259.965 315.069Z" fill="white" fill-opacity="0.3"/>
<path d="M232.655 315.069C234.712 315.069 236.379 313.401 236.379 311.345C236.379 309.288 234.712 307.621 232.655 307.621C230.599 307.621 228.931 309.288 228.931 311.345C228.931 313.401 230.599 315.069 232.655 315.069Z" fill="white" fill-opacity="0.3"/>
<path d="M205.345 315.069C207.402 315.069 209.069 313.401 209.069 311.345C209.069 309.288 207.402 307.621 205.345 307.621C203.288 307.621 201.621 309.288 201.621 311.345C201.621 313.401 203.288 315.069 205.345 315.069Z" fill="white" fill-opacity="0.3"/>
<path d="M178.034 315.069C180.091 315.069 181.758 313.401 181.758 311.345C181.758 309.288 180.091 307.621 178.034 307.621C175.977 307.621 174.31 309.288 174.31 311.345C174.31 313.401 175.977 315.069 178.034 315.069Z" fill="white" fill-opacity="0.3"/>
<path d="M150.724 315.069C152.781 315.069 154.448 313.402 154.448 311.345C154.448 309.288 152.781 307.621 150.724 307.621C148.667 307.621 147 309.288 147 311.345C147 313.402 148.667 315.069 150.724 315.069Z" fill="white" fill-opacity="0.3"/>
<path d="M287.276 287.759C289.333 287.759 291 286.091 291 284.034C291 281.978 289.333 280.31 287.276 280.31C285.219 280.31 283.552 281.978 283.552 284.034C283.552 286.091 285.219 287.759 287.276 287.759Z" fill="white" fill-opacity="0.3"/>
<path d="M259.965 287.759C262.022 287.759 263.689 286.091 263.689 284.034C263.689 281.978 262.022 280.31 259.965 280.31C257.909 280.31 256.241 281.978 256.241 284.034C256.241 286.091 257.909 287.759 259.965 287.759Z" fill="white" fill-opacity="0.3"/>
<path d="M232.655 287.759C234.712 287.759 236.379 286.091 236.379 284.034C236.379 281.978 234.712 280.31 232.655 280.31C230.599 280.31 228.931 281.978 228.931 284.034C228.931 286.091 230.599 287.759 232.655 287.759Z" fill="white" fill-opacity="0.3"/>
<path d="M205.345 287.759C207.402 287.759 209.069 286.091 209.069 284.034C209.069 281.978 207.402 280.31 205.345 280.31C203.288 280.31 201.621 281.978 201.621 284.034C201.621 286.091 203.288 287.759 205.345 287.759Z" fill="white" fill-opacity="0.3"/>
<path d="M178.034 287.759C180.091 287.759 181.758 286.091 181.758 284.034C181.758 281.978 180.091 280.31 178.034 280.31C175.977 280.31 174.31 281.978 174.31 284.034C174.31 286.091 175.977 287.759 178.034 287.759Z" fill="white" fill-opacity="0.3"/>
<path d="M150.724 287.759C152.781 287.759 154.448 286.091 154.448 284.035C154.448 281.978 152.781 280.31 150.724 280.31C148.667 280.31 147 281.978 147 284.035C147 286.091 148.667 287.759 150.724 287.759Z" fill="white" fill-opacity="0.3"/>
<path d="M287.276 260.448C289.333 260.448 291 258.781 291 256.724C291 254.667 289.333 253 287.276 253C285.219 253 283.552 254.667 283.552 256.724C283.552 258.781 285.219 260.448 287.276 260.448Z" fill="white" fill-opacity="0.3"/>
<path d="M259.965 260.448C262.022 260.448 263.689 258.781 263.689 256.724C263.689 254.667 262.022 253 259.965 253C257.909 253 256.241 254.667 256.241 256.724C256.241 258.781 257.909 260.448 259.965 260.448Z" fill="white" fill-opacity="0.3"/>
<path d="M232.655 260.448C234.712 260.448 236.379 258.781 236.379 256.724C236.379 254.667 234.712 253 232.655 253C230.599 253 228.931 254.667 228.931 256.724C228.931 258.781 230.599 260.448 232.655 260.448Z" fill="white" fill-opacity="0.3"/>
<path d="M205.345 260.448C207.402 260.448 209.069 258.781 209.069 256.724C209.069 254.667 207.402 253 205.345 253C203.288 253 201.621 254.667 201.621 256.724C201.621 258.781 203.288 260.448 205.345 260.448Z" fill="white" fill-opacity="0.3"/>
<path d="M178.034 260.448C180.091 260.448 181.758 258.781 181.758 256.724C181.758 254.667 180.091 253 178.034 253C175.977 253 174.31 254.667 174.31 256.724C174.31 258.781 175.977 260.448 178.034 260.448Z" fill="white" fill-opacity="0.3"/>
<path d="M150.724 260.448C152.781 260.448 154.448 258.781 154.448 256.724C154.448 254.667 152.781 253 150.724 253C148.667 253 147 254.667 147 256.724C147 258.781 148.667 260.448 150.724 260.448Z" fill="white" fill-opacity="0.3"/>
<path d="M771.781 248.659C755.285 232.204 755.285 205.464 768.742 188.901L920.682 37.3413C940.325 20.8862 967.132 20.8862 983.628 37.3413C1000.12 53.7963 1000.12 80.5358 983.628 97.0991L831.688 248.659C815.084 265.114 788.277 265.114 771.781 248.659Z" fill="url(#paint48_linear)" fill-opacity="0.3"/>
</g>
<defs>
<linearGradient id="paint0_linear" x1="2160" y1="1118" x2="2160" y2="2236" gradientUnits="userSpaceOnUse">
<stop offset="0.140625" stop-color="#377DFF" stop-opacity="0.4"/>
<stop offset="0.869792" stop-color="#377DFF" stop-opacity="0"/>
</linearGradient>
<linearGradient id="paint1_linear" x1="630" y1="545" x2="1100" y2="122.5" gradientUnits="userSpaceOnUse">
<stop stop-color="white" stop-opacity="0.31"/>
<stop offset="1" stop-color="white" stop-opacity="0"/>
</linearGradient>
<linearGradient id="paint2_linear" x1="2" y1="674" x2="472" y2="251.5" gradientUnits="userSpaceOnUse">
<stop stop-color="white"/>
<stop offset="1" stop-color="white" stop-opacity="0"/>
</linearGradient>
<linearGradient id="paint3_linear" x1="1084.88" y1="758.376" x2="674.028" y2="1128.14" gradientUnits="userSpaceOnUse">
<stop stop-color="white"/>
<stop offset="1" stop-color="white" stop-opacity="0"/>
</linearGradient>
<linearGradient id="paint4_linear" x1="769.282" y1="794.741" x2="1052" y2="539.954" gradientUnits="userSpaceOnUse">
<stop stop-color="white"/>
<stop offset="1" stop-color="white" stop-opacity="0"/>
</linearGradient>
<linearGradient id="paint5_linear" x1="4.28164" y1="944.741" x2="287.005" y2="689.955" gradientUnits="userSpaceOnUse">
<stop stop-color="white"/>
<stop offset="1" stop-color="white" stop-opacity="0"/>
</linearGradient>
<linearGradient id="paint6_linear" x1="388.282" y1="608.741" x2="671.005" y2="353.955" gradientUnits="userSpaceOnUse">
<stop stop-color="white"/>
<stop offset="1" stop-color="white" stop-opacity="0"/>
</linearGradient>
<linearGradient id="paint7_linear" x1="49.7184" y1="450.259" x2="-233.005" y2="705.045" gradientUnits="userSpaceOnUse">
<stop stop-color="white"/>
<stop offset="1" stop-color="white" stop-opacity="0"/>
</linearGradient>
<linearGradient id="paint8_linear" x1="497.279" y1="649.981" x2="467.85" y2="1179.45" gradientUnits="userSpaceOnUse">
<stop stop-color="white"/>
<stop offset="1" stop-color="white" stop-opacity="0"/>
</linearGradient>
<linearGradient id="paint9_linear" x1="-51.084" y1="20.2116" x2="-72.879" y2="412.34" gradientUnits="userSpaceOnUse">
<stop stop-color="white"/>
<stop offset="1" stop-color="white" stop-opacity="0"/>
</linearGradient>
<linearGradient id="paint10_linear" x1="1117.12" y1="697.98" x2="1138.68" y2="678.638" gradientUnits="userSpaceOnUse">
<stop stop-color="white" stop-opacity="0.31"/>
<stop offset="1" stop-color="white" stop-opacity="0"/>
</linearGradient>
<linearGradient id="paint11_linear" x1="272.012" y1="-96.3694" x2="1021.24" y2="-54.7262" gradientUnits="userSpaceOnUse">
<stop stop-color="white"/>
<stop offset="1" stop-color="white" stop-opacity="0"/>
</linearGradient>
<linearGradient id="paint12_linear" x1="830.917" y1="719.993" x2="838.597" y2="713.101" gradientUnits="userSpaceOnUse">
<stop stop-color="white" stop-opacity="0.31"/>
<stop offset="1" stop-color="white" stop-opacity="0"/>
</linearGradient>
<linearGradient id="paint13_linear" x1="807.4" y1="719.993" x2="815.08" y2="713.101" gradientUnits="userSpaceOnUse">
<stop stop-color="white" stop-opacity="0.31"/>
<stop offset="1" stop-color="white" stop-opacity="0"/>
</linearGradient>
<linearGradient id="paint14_linear" x1="783.883" y1="719.993" x2="791.563" y2="713.101" gradientUnits="userSpaceOnUse">
<stop stop-color="white" stop-opacity="0.31"/>
<stop offset="1" stop-color="white" stop-opacity="0"/>
</linearGradient>
<linearGradient id="paint15_linear" x1="760.365" y1="719.993" x2="768.046" y2="713.101" gradientUnits="userSpaceOnUse">
<stop stop-color="white" stop-opacity="0.31"/>
<stop offset="1" stop-color="white" stop-opacity="0"/>
</linearGradient>
<linearGradient id="paint16_linear" x1="736.848" y1="719.993" x2="744.529" y2="713.101" gradientUnits="userSpaceOnUse">
<stop stop-color="white" stop-opacity="0.31"/>
<stop offset="1" stop-color="white" stop-opacity="0"/>
</linearGradient>
<linearGradient id="paint17_linear" x1="713.331" y1="719.993" x2="721.011" y2="713.101" gradientUnits="userSpaceOnUse">
<stop stop-color="white" stop-opacity="0.31"/>
<stop offset="1" stop-color="white" stop-opacity="0"/>
</linearGradient>
<linearGradient id="paint18_linear" x1="830.917" y1="696.476" x2="838.597" y2="689.584" gradientUnits="userSpaceOnUse">
<stop stop-color="white" stop-opacity="0.31"/>
<stop offset="1" stop-color="white" stop-opacity="0"/>
</linearGradient>
<linearGradient id="paint19_linear" x1="807.4" y1="696.476" x2="815.08" y2="689.584" gradientUnits="userSpaceOnUse">
<stop stop-color="white" stop-opacity="0.31"/>
<stop offset="1" stop-color="white" stop-opacity="0"/>
</linearGradient>
<linearGradient id="paint20_linear" x1="783.883" y1="696.476" x2="791.563" y2="689.584" gradientUnits="userSpaceOnUse">
<stop stop-color="white" stop-opacity="0.31"/>
<stop offset="1" stop-color="white" stop-opacity="0"/>
</linearGradient>
<linearGradient id="paint21_linear" x1="760.365" y1="696.476" x2="768.046" y2="689.584" gradientUnits="userSpaceOnUse">
<stop stop-color="white" stop-opacity="0.31"/>
<stop offset="1" stop-color="white" stop-opacity="0"/>
</linearGradient>
<linearGradient id="paint22_linear" x1="736.848" y1="696.476" x2="744.529" y2="689.584" gradientUnits="userSpaceOnUse">
<stop stop-color="white" stop-opacity="0.31"/>
<stop offset="1" stop-color="white" stop-opacity="0"/>
</linearGradient>
<linearGradient id="paint23_linear" x1="713.331" y1="696.476" x2="721.011" y2="689.584" gradientUnits="userSpaceOnUse">
<stop stop-color="white" stop-opacity="0.31"/>
<stop offset="1" stop-color="white" stop-opacity="0"/>
</linearGradient>
<linearGradient id="paint24_linear" x1="830.917" y1="672.958" x2="838.597" y2="666.066" gradientUnits="userSpaceOnUse">
<stop stop-color="white" stop-opacity="0.31"/>
<stop offset="1" stop-color="white" stop-opacity="0"/>
</linearGradient>
<linearGradient id="paint25_linear" x1="807.4" y1="672.958" x2="815.08" y2="666.066" gradientUnits="userSpaceOnUse">
<stop stop-color="white" stop-opacity="0.31"/>
<stop offset="1" stop-color="white" stop-opacity="0"/>
</linearGradient>
<linearGradient id="paint26_linear" x1="783.883" y1="672.958" x2="791.563" y2="666.066" gradientUnits="userSpaceOnUse">
<stop stop-color="white" stop-opacity="0.31"/>
<stop offset="1" stop-color="white" stop-opacity="0"/>
</linearGradient>
<linearGradient id="paint27_linear" x1="760.365" y1="672.958" x2="768.046" y2="666.066" gradientUnits="userSpaceOnUse">
<stop stop-color="white" stop-opacity="0.31"/>
<stop offset="1" stop-color="white" stop-opacity="0"/>
</linearGradient>
<linearGradient id="paint28_linear" x1="736.848" y1="672.958" x2="744.529" y2="666.066" gradientUnits="userSpaceOnUse">
<stop stop-color="white" stop-opacity="0.31"/>
<stop offset="1" stop-color="white" stop-opacity="0"/>
</linearGradient>
<linearGradient id="paint29_linear" x1="713.331" y1="672.959" x2="721.011" y2="666.067" gradientUnits="userSpaceOnUse">
<stop stop-color="white" stop-opacity="0.31"/>
<stop offset="1" stop-color="white" stop-opacity="0"/>
</linearGradient>
<linearGradient id="paint30_linear" x1="830.917" y1="649.441" x2="838.597" y2="642.549" gradientUnits="userSpaceOnUse">
<stop stop-color="white" stop-opacity="0.31"/>
<stop offset="1" stop-color="white" stop-opacity="0"/>
</linearGradient>
<linearGradient id="paint31_linear" x1="807.4" y1="649.441" x2="815.08" y2="642.549" gradientUnits="userSpaceOnUse">
<stop stop-color="white" stop-opacity="0.31"/>
<stop offset="1" stop-color="white" stop-opacity="0"/>
</linearGradient>
<linearGradient id="paint32_linear" x1="783.883" y1="649.441" x2="791.563" y2="642.549" gradientUnits="userSpaceOnUse">
<stop stop-color="white" stop-opacity="0.31"/>
<stop offset="1" stop-color="white" stop-opacity="0"/>
</linearGradient>
<linearGradient id="paint33_linear" x1="760.365" y1="649.441" x2="768.046" y2="642.549" gradientUnits="userSpaceOnUse">
<stop stop-color="white" stop-opacity="0.31"/>
<stop offset="1" stop-color="white" stop-opacity="0"/>
</linearGradient>
<linearGradient id="paint34_linear" x1="736.848" y1="649.441" x2="744.529" y2="642.549" gradientUnits="userSpaceOnUse">
<stop stop-color="white" stop-opacity="0.31"/>
<stop offset="1" stop-color="white" stop-opacity="0"/>
</linearGradient>
<linearGradient id="paint35_linear" x1="713.331" y1="649.441" x2="721.011" y2="642.549" gradientUnits="userSpaceOnUse">
<stop stop-color="white" stop-opacity="0.31"/>
<stop offset="1" stop-color="white" stop-opacity="0"/>
</linearGradient>
<linearGradient id="paint36_linear" x1="830.917" y1="625.924" x2="838.597" y2="619.032" gradientUnits="userSpaceOnUse">
<stop stop-color="white" stop-opacity="0.31"/>
<stop offset="1" stop-color="white" stop-opacity="0"/>
</linearGradient>
<linearGradient id="paint37_linear" x1="807.4" y1="625.924" x2="815.08" y2="619.032" gradientUnits="userSpaceOnUse">
<stop stop-color="white" stop-opacity="0.31"/>
<stop offset="1" stop-color="white" stop-opacity="0"/>
</linearGradient>
<linearGradient id="paint38_linear" x1="783.883" y1="625.924" x2="791.563" y2="619.032" gradientUnits="userSpaceOnUse">
<stop stop-color="white" stop-opacity="0.31"/>
<stop offset="1" stop-color="white" stop-opacity="0"/>
</linearGradient>
<linearGradient id="paint39_linear" x1="760.365" y1="625.924" x2="768.046" y2="619.032" gradientUnits="userSpaceOnUse">
<stop stop-color="white" stop-opacity="0.31"/>
<stop offset="1" stop-color="white" stop-opacity="0"/>
</linearGradient>
<linearGradient id="paint40_linear" x1="736.848" y1="625.924" x2="744.529" y2="619.032" gradientUnits="userSpaceOnUse">
<stop stop-color="white" stop-opacity="0.31"/>
<stop offset="1" stop-color="white" stop-opacity="0"/>
</linearGradient>
<linearGradient id="paint41_linear" x1="713.331" y1="625.924" x2="721.011" y2="619.032" gradientUnits="userSpaceOnUse">
<stop stop-color="white" stop-opacity="0.31"/>
<stop offset="1" stop-color="white" stop-opacity="0"/>
</linearGradient>
<linearGradient id="paint42_linear" x1="830.917" y1="602.407" x2="838.597" y2="595.515" gradientUnits="userSpaceOnUse">
<stop stop-color="white" stop-opacity="0.31"/>
<stop offset="1" stop-color="white" stop-opacity="0"/>
</linearGradient>
<linearGradient id="paint43_linear" x1="807.4" y1="602.407" x2="815.08" y2="595.515" gradientUnits="userSpaceOnUse">
<stop stop-color="white" stop-opacity="0.31"/>
<stop offset="1" stop-color="white" stop-opacity="0"/>
</linearGradient>
<linearGradient id="paint44_linear" x1="783.883" y1="602.407" x2="791.563" y2="595.515" gradientUnits="userSpaceOnUse">
<stop stop-color="white" stop-opacity="0.31"/>
<stop offset="1" stop-color="white" stop-opacity="0"/>
</linearGradient>
<linearGradient id="paint45_linear" x1="760.365" y1="602.407" x2="768.046" y2="595.515" gradientUnits="userSpaceOnUse">
<stop stop-color="white" stop-opacity="0.31"/>
<stop offset="1" stop-color="white" stop-opacity="0"/>
</linearGradient>
<linearGradient id="paint46_linear" x1="736.848" y1="602.407" x2="744.529" y2="595.515" gradientUnits="userSpaceOnUse">
<stop stop-color="white" stop-opacity="0.31"/>
<stop offset="1" stop-color="white" stop-opacity="0"/>
</linearGradient>
<linearGradient id="paint47_linear" x1="713.331" y1="602.407" x2="721.011" y2="595.515" gradientUnits="userSpaceOnUse">
<stop stop-color="white" stop-opacity="0.31"/>
<stop offset="1" stop-color="white" stop-opacity="0"/>
</linearGradient>
<linearGradient id="paint48_linear" x1="996" y1="62" x2="768" y2="233" gradientUnits="userSpaceOnUse">
<stop stop-color="white" stop-opacity="0"/>
<stop offset="1" stop-color="white"/>
</linearGradient>
<clipPath id="clip0">
<rect width="1440" height="1118" fill="white"/>
</clipPath>
</defs>
</svg>
