<svg width="225" height="61" viewBox="0 0 225 61" fill="none" xmlns="http://www.w3.org/2000/svg">
<path d="M191.694 8.91719H198.499V22.6102L191.694 29.039V8.91719ZM191.694 47.0234V43.4848L198.499 37.0297V47.0234H191.694ZM217.295 47.0234L204.957 30.9586L209.59 26.5202L225 47.0234H217.295ZM93.0941 47.0234C90.642 47.0234 88.2295 46.5585 85.9229 45.6414C83.6351 44.7316 81.5828 43.5184 79.8223 42.0356L79.1648 41.4817L82.8483 36.5493L83.5705 37.1368C85.1935 38.4589 86.787 39.4732 88.3076 40.1506C89.7834 40.8089 91.4648 41.143 93.3052 41.143C95.3253 41.143 96.8819 40.6681 97.9292 39.7311C98.9594 38.8094 99.4606 37.6789 99.4606 36.2751C99.4606 34.9113 98.9028 33.847 97.7567 33.0216C96.4453 32.0782 94.5393 31.1584 92.0899 30.2867C88.7702 29.0708 86.1268 27.7197 84.2289 26.2678C82.1675 24.6914 81.122 22.4204 81.122 19.5184C81.122 16.452 82.2825 13.8814 84.5711 11.8792C86.8211 9.91148 89.8786 8.91265 93.6582 8.91265C95.689 8.91265 97.675 9.29403 99.5594 10.0459C101.424 10.7905 103.114 11.7711 104.588 12.9624L105.265 13.51L101.748 18.2835L101.031 17.7586C99.7292 16.8061 98.4843 16.0724 97.3274 15.5776C96.2226 15.1045 94.9875 14.8648 93.6582 14.8648C91.7325 14.8648 90.2729 15.3024 89.319 16.166C88.3822 17.0159 87.9259 18.0192 87.9259 19.2333C87.9259 20.0541 88.1837 20.7406 88.7154 21.3326C89.3109 21.9973 90.0537 22.5358 90.925 22.9344C91.8825 23.373 93.2684 23.9541 95.045 24.6633C97.4486 25.5686 99.3807 26.3994 100.771 27.1258C102.247 27.8977 103.535 29.0027 104.599 30.412C105.705 31.8766 106.264 33.7526 106.264 35.99C106.264 38.0085 105.732 39.8872 104.68 41.5725C103.628 43.2587 102.08 44.6062 100.078 45.5787C98.1043 46.5376 95.7546 47.0234 93.0941 47.0234ZM119.434 47.0234C115.766 47.0234 113.081 45.9183 111.453 43.7391C109.881 41.6397 109.084 38.6487 109.084 34.8486V0.00038147H116.03V9.76892H125.411V15.8627H116.03V34.9921C116.03 37.0669 116.386 38.6142 117.091 39.5912C117.741 40.492 118.876 40.9296 120.562 40.9296C121.438 40.9296 122.661 40.6364 124.199 40.0589L125.12 39.7129L126.661 45.4216L125.854 45.6931C123.198 46.5885 121.098 47.0234 119.434 47.0234ZM143.368 15.0791C141.526 15.0791 139.935 15.593 138.503 16.6499C137.068 17.7114 135.934 19.2269 135.133 21.1537C134.314 23.1224 133.899 25.4269 133.899 28.0039C133.899 31.9157 134.809 35.0874 136.602 37.4301C138.366 39.7365 140.579 40.8579 143.368 40.8579C145.214 40.8579 146.809 40.353 148.242 39.3161C149.675 38.2782 150.82 36.7736 151.644 34.8459C152.483 32.8764 152.91 30.5745 152.91 28.0039C152.91 25.4342 152.483 23.1323 151.643 21.1619C150.818 19.2324 149.671 17.7141 148.234 16.6499C146.802 15.593 145.211 15.0791 143.368 15.0791ZM143.368 47.0234C140.397 47.0234 137.607 46.2489 135.079 44.7207C132.548 43.1906 130.503 40.9596 128.998 38.0912C127.501 35.24 126.742 31.8458 126.742 28.0039C126.742 24.1639 127.5 20.7588 128.996 17.883C130.502 14.9901 132.548 12.7472 135.079 11.2163C137.607 9.68811 140.397 8.91265 143.368 8.91265C146.341 8.91265 149.13 9.68811 151.659 11.2163C154.188 12.7463 156.234 14.9892 157.741 17.883C159.238 20.7606 159.996 24.1657 159.996 28.0039C159.996 31.8439 159.237 35.2381 157.74 38.0912C156.233 40.9614 154.187 43.1915 151.659 44.7207C149.13 46.2489 146.341 47.0234 143.368 47.0234ZM188.95 43.0562C187.421 44.3284 186.673 44.7978 184.712 45.695C182.757 46.5876 179.879 47.0234 177.75 47.0234C174.592 47.0234 171.697 46.2498 169.145 44.7225C166.587 43.1906 164.551 40.9696 163.091 38.1184C161.644 35.2917 160.91 31.8893 160.91 28.0039C160.91 24.1611 161.694 20.7524 163.241 17.8731C164.797 14.9783 166.917 12.7364 169.542 11.209C172.162 9.68538 175.042 8.91265 178.102 8.91265C182.034 8.91265 185.587 10.3873 188.661 13.2939L189.265 13.865L185.473 18.7084L184.76 18.0492C183.701 17.0676 182.636 16.3149 181.593 15.81C180.591 15.3251 179.488 15.0791 178.314 15.0791C176.393 15.0791 174.64 15.613 173.106 16.6681C171.555 17.7359 170.318 19.256 169.43 21.1855C168.526 23.146 168.067 25.4405 168.067 28.0039C168.067 31.9075 169.02 35.0738 170.9 37.4138C172.758 39.7311 175.137 40.8579 178.173 40.8579C181.036 40.8579 183.358 39.8981 185.702 37.7452L216.214 8.9181L225 8.91629" fill="#334D6E"/>
<path d="M34.8885 8.90646V47.118H26.9196V42.2519C25.5804 43.9699 23.9062 45.2929 21.8969 46.2236C19.8885 47.1543 17.722 47.6192 15.402 47.6192C10.6244 47.6192 6.86366 46.2 4.11785 43.3615C1.37294 40.5239 0.000488281 36.3134 0.000488281 30.7318V8.90646H8.37084V29.515C8.37084 32.9501 9.0957 35.5143 10.5472 37.2069C11.9969 38.9013 14.0628 39.7476 16.7412 39.7476C19.7313 39.7476 22.1089 38.7578 23.8729 36.7783C25.6361 34.7988 26.5173 31.9476 26.5173 28.2265V8.90646H34.8885Z" fill="#379EFF"/>
<path d="M66.3277 36.6708C68.3136 34.477 69.3079 31.5904 69.3079 28.0119C69.3079 24.4342 68.3136 21.5485 66.3277 19.3538C64.3409 17.16 61.8079 16.0622 58.7271 16.0622C56.7187 16.0622 54.9106 16.5517 53.3028 17.5287C51.696 18.5076 50.4232 19.9032 49.4864 21.7147C48.5487 23.5289 48.0798 25.6274 48.0798 28.0119C48.0798 30.3982 48.5487 32.4966 49.4864 34.309C50.4232 36.1224 51.696 37.518 53.3028 38.495C54.9106 39.4739 56.7187 39.9624 58.7271 39.9624C61.8079 39.9624 64.3409 38.8655 66.3277 36.6708ZM69.0061 10.9101C71.752 12.5327 73.9049 14.8219 75.4678 17.7793C77.0307 20.7377 77.8121 24.1482 77.8121 28.0119C77.8121 31.8764 77.0307 35.2997 75.4678 38.2807C73.9049 41.2627 71.752 43.5645 69.0061 45.1854C66.2612 46.808 63.1472 47.6189 59.6648 47.6189C54.8433 47.6189 51.0268 45.9018 48.2136 42.4667V60.9995H39.8433V8.90609H47.8121V13.9157C49.1954 12.1033 50.9028 10.743 52.9355 9.83681C54.9654 8.9306 57.2091 8.4775 59.6648 8.4775C63.1472 8.4775 66.2612 9.28836 69.0061 10.9101Z" fill="#379EFF"/>
</svg>
