<svg width="24" height="24" viewBox="0 0 24 24" fill="none" xmlns="http://www.w3.org/2000/svg">
<rect opacity="0.01" y="3.05176e-05" width="24" height="24" fill="#C1C7D0"/>
<path fill-rule="evenodd" clip-rule="evenodd" d="M11.4517 21.2292C6.10979 21.2292 2.81947 17.4697 2.81947 12.6953C2.79667 10.1629 3.80282 7.72979 5.60749 5.95315C7.41215 4.17651 9.86072 3.20856 12.3924 3.27099C17.2651 3.27099 20.9015 6.26403 20.9015 10.9889C20.9015 15.2927 18.6262 16.9998 16.3501 16.9998C15.3736 17.0509 14.4464 16.5676 13.9291 15.7378C13.1019 16.5076 12.0166 16.9401 10.8866 16.9502C8.16528 16.9502 6.78334 15.0209 6.78334 12.6922C6.73704 11.2502 7.28591 9.85272 8.30113 8.82769C9.31634 7.80267 10.7085 7.24037 12.1508 7.2728C12.9459 7.24788 13.7274 7.4824 14.3774 7.94093L14.4765 7.52054H16.8262L15.6649 12.9623C15.4419 14.0509 15.6897 14.9164 16.7534 14.9164C18.0641 14.9164 18.8313 13.8279 18.8313 10.934C18.8313 7.07538 15.7888 5.26919 12.3753 5.26919C10.3908 5.1981 8.46662 5.95877 7.06713 7.36768C5.66763 8.77658 4.91987 10.7058 5.00425 12.6898C5.00425 16.598 7.50257 19.1458 11.4602 19.1458C12.9712 19.1574 14.4633 18.8098 15.8135 18.1316L16.6295 20.1353C14.9922 20.8366 13.2328 21.2083 11.4517 21.2292ZM11.2783 14.6245C11.9496 14.6505 12.6022 14.4 13.0837 13.9316L13.875 10.2705C13.4247 9.81801 12.81 9.56792 12.1717 9.57755C11.4044 9.57044 10.6678 9.87899 10.1346 10.4309C9.60145 10.9828 9.31851 11.7296 9.35212 12.4963C9.34979 13.7837 9.96837 14.6245 11.2791 14.6245H11.2783Z" fill="#C1C7D0"/>
</svg>
