<svg width="21" height="21" viewBox="0 0 21 21" fill="none" xmlns="http://www.w3.org/2000/svg">
<mask id="mask0" mask-type="alpha" maskUnits="userSpaceOnUse" x="0" y="0" width="21" height="21">
<path fill-rule="evenodd" clip-rule="evenodd" d="M20.7558 8.59091H10.7442V12.6477H16.507C15.9698 15.225 13.7233 16.7045 10.7442 16.7045C7.22791 16.7045 4.39535 13.9364 4.39535 10.5C4.39535 7.06364 7.22791 4.29545 10.7442 4.29545C12.2581 4.29545 13.6256 4.82045 14.7 5.67955L17.8256 2.625C15.9209 1.00227 13.4791 0 10.7442 0C4.78605 0 0 4.67727 0 10.5C0 16.3227 4.78605 21 10.7442 21C16.1163 21 21 17.1818 21 10.5C21 9.87955 20.9023 9.21136 20.7558 8.59091Z" fill="white"/>
</mask>
<g mask="url(#mask0)">
<path d="M-0.976807 16.7046V4.29546L7.32552 10.5L-0.976807 16.7046Z" fill="#FFAB00"/>
</g>
<mask id="mask1" mask-type="alpha" maskUnits="userSpaceOnUse" x="0" y="0" width="21" height="21">
<path fill-rule="evenodd" clip-rule="evenodd" d="M20.7558 8.59091H10.7442V12.6477H16.507C15.9698 15.225 13.7233 16.7045 10.7442 16.7045C7.22791 16.7045 4.39535 13.9364 4.39535 10.5C4.39535 7.06364 7.22791 4.29545 10.7442 4.29545C12.2581 4.29545 13.6256 4.82045 14.7 5.67955L17.8256 2.625C15.9209 1.00227 13.4791 0 10.7442 0C4.78605 0 0 4.67727 0 10.5C0 16.3227 4.78605 21 10.7442 21C16.1163 21 21 17.1818 21 10.5C21 9.87955 20.9023 9.21136 20.7558 8.59091Z" fill="white"/>
</mask>
<g mask="url(#mask1)">
<path d="M-0.976807 4.29546L7.32552 10.5L10.7441 7.58864L22.4651 5.72728V-0.954536H-0.976807V4.29546Z" fill="#FF5630"/>
</g>
<mask id="mask2" mask-type="alpha" maskUnits="userSpaceOnUse" x="0" y="0" width="21" height="21">
<path fill-rule="evenodd" clip-rule="evenodd" d="M20.7558 8.59091H10.7442V12.6477H16.507C15.9698 15.225 13.7233 16.7045 10.7442 16.7045C7.22791 16.7045 4.39535 13.9364 4.39535 10.5C4.39535 7.06364 7.22791 4.29545 10.7442 4.29545C12.2581 4.29545 13.6256 4.82045 14.7 5.67955L17.8256 2.625C15.9209 1.00227 13.4791 0 10.7442 0C4.78605 0 0 4.67727 0 10.5C0 16.3227 4.78605 21 10.7442 21C16.1163 21 21 17.1818 21 10.5C21 9.87955 20.9023 9.21136 20.7558 8.59091Z" fill="white"/>
</mask>
<g mask="url(#mask2)">
<path d="M-0.976807 16.7046L13.6744 5.72728L17.5325 6.20455L22.4651 -0.954536V21.9546H-0.976807V16.7046Z" fill="#38CB89"/>
</g>
<mask id="mask3" mask-type="alpha" maskUnits="userSpaceOnUse" x="0" y="0" width="21" height="21">
<path fill-rule="evenodd" clip-rule="evenodd" d="M20.7558 8.59091H10.7442V12.6477H16.507C15.9698 15.225 13.7233 16.7045 10.7442 16.7045C7.22791 16.7045 4.39535 13.9364 4.39535 10.5C4.39535 7.06364 7.22791 4.29545 10.7442 4.29545C12.2581 4.29545 13.6256 4.82045 14.7 5.67955L17.8256 2.625C15.9209 1.00227 13.4791 0 10.7442 0C4.78605 0 0 4.67727 0 10.5C0 16.3227 4.78605 21 10.7442 21C16.1163 21 21 17.1818 21 10.5C21 9.87955 20.9023 9.21136 20.7558 8.59091Z" fill="white"/>
</mask>
<g mask="url(#mask3)">
<path d="M22.4651 21.9546L7.32556 10.5L5.37207 9.06819L22.4651 4.29546V21.9546Z" fill="#379EFF"/>
</g>
</svg>
