<svg width="129" height="129" viewBox="0 0 129 129" fill="none" xmlns="http://www.w3.org/2000/svg">
<circle cx="64.5" cy="64.5" r="64.5" fill="#F4F8FF"/>
<path opacity="0.3" d="M44.2187 90.5208C43.5199 90.5208 42.8212 90.2413 42.2621 89.6823L36.6719 84.092C35.5538 82.974 35.5538 81.2969 36.6719 80.1788C37.7899 79.0608 39.6068 79.0608 40.585 80.1788L44.2187 83.8125L53.4427 74.5885C54.5607 73.4705 56.2378 73.4705 57.3559 74.5885C58.4739 75.7066 58.4739 77.3837 57.3559 78.5017L46.1753 89.6823C45.6163 90.2413 44.9175 90.5208 44.2187 90.5208Z" fill="#379EFF"/>
<path fill-rule="evenodd" clip-rule="evenodd" d="M67.8689 82.5C67.1184 71.0987 57.6329 62.0833 46.0417 62.0833C44.5434 62.0833 43.0803 62.234 41.6667 62.5209V50.4167C41.6667 47.195 44.2784 44.5833 47.5 44.5833H88.3334C91.555 44.5833 94.1667 47.195 94.1667 50.4167V76.6667C94.1667 79.8883 91.555 82.5 88.3334 82.5H67.8689ZM85.8379 49.949L67.9167 59.5989L49.9954 49.949C48.9317 49.3762 47.6051 49.7742 47.0323 50.8379C46.4596 51.9016 46.8575 53.2283 47.9213 53.801L66.8796 64.0094C67.527 64.358 68.3063 64.358 68.9538 64.0094L87.9121 53.801C88.9758 53.2283 89.3738 51.9016 88.8011 50.8379C88.2283 49.7742 86.9016 49.3762 85.8379 49.949Z" fill="#379EFF"/>
</svg>
